<svg width="75" height="75" xmlns="http://www.w3.org/2000/svg" preserveAspectRatio="xMidYMid meet" version="1.0">

 <g>
  <title>Слой 1</title>
  <g id="svg_1" fill="#000000" transform="translate(0.000000,93.000000) scale(0.100000,-0.100000)">
   <path id="svg_2" fill="#e05b22" d="m561,826l-174,-94l38,-20l38,-19l138,71l139,71l0,43c0,23 -1,42 -2,42c-2,-1 -81,-43 -177,-94z"/>
   <path id="svg_3" fill="#e05b22" d="m620,731l-114,-58l39,-21l40,-20l77,39c78,39 78,39 78,79c0,22 -1,40 -2,39c-2,0 -55,-26 -118,-58z"/>
   <path id="svg_4" fill="#e05b22" d="m138,643l-3,-68l-63,-33c-60,-32 -62,-34 -62,-73l0,-39l180,90l180,90l93,-46c50,-26 134,-66 185,-90l92,-43l0,40l0,39l-185,93l-185,92l-73,-38c-40,-20 -76,-37 -80,-37c-4,0 -7,13 -7,30c0,23 -7,33 -30,45c-16,8 -31,15 -34,15c-3,0 -6,-30 -8,-67z"/>
   <path id="svg_5" fill="#e05b22" d="m683,637c-24,-11 -43,-24 -43,-27c0,-4 15,-13 33,-22c44,-21 67,-8 67,37c0,40 -1,41 -57,12z"/>
   <path id="svg_6" fill="#e05b22" d="m380,525l0,-35l180,-90l180,-90l0,38l0,37l-175,88c-96,48 -177,87 -180,87c-3,0 -5,-16 -5,-35z"/>
   <path id="svg_7" fill="#e05b22" d="m380,402l0,-37l175,-88c96,-48 177,-87 180,-87c3,0 5,16 5,35l0,35l-180,90l-180,90l0,-38z"/>
   <path id="svg_8" fill="#e05b22" d="m43,405l-33,-14l0,-85c0,-85 0,-86 31,-101c17,-9 33,-14 35,-12c3,2 3,54 2,115l-3,110l-32,-13z"/>
  </g>
  <g>
   <g>
    <title>Слой 1</title>
    <g transform="translate(0 93) scale(0.1 -0.1)" fill="#000000" id="svg_9">
     <path d="m561,825.99999l-174,-94l38,-20l38,-19l138,71l139,71l0,43c0,23 -1,42 -2,42c-2,-1 -81,-43 -177,-94z" fill="#e05b22" id="svg_16"/>
     <path d="m620,730.99999l-114,-58l39,-21l40,-20l77,39c78,39 78,39 78,79c0,22 -1,40 -2,39c-2,0 -55,-26 -118,-58z" fill="#e05b22" id="svg_15"/>
     <path d="m138,642.99999l-3,-68l-63,-33c-60,-32 -62,-34 -62,-73l0,-39l180,90l180,90l93,-46c50,-26 134,-66 185,-90l92,-43l0,40l0,39l-185,93l-185,92l-73,-38c-40,-20 -76,-37 -80,-37c-4,0 -7,13 -7,30c0,23 -7,33 -30,45c-16,8 -31,15 -34,15c-3,0 -6,-30 -8,-67z" fill="#e05b22" id="svg_14"/>
     <path d="m683,636.99999c-24,-11 -43,-24 -43,-27c0,-4 15,-13 33,-22c44,-21 67,-8 67,37c0,40 -1,41 -57,12z" fill="#e05b22" id="svg_13"/>
     <path d="m380,524.99999l0,-35l180,-90l180,-90l0,38l0,37l-175,88c-96,48 -177,87 -180,87c-3,0 -5,-16 -5,-35z" fill="#e05b22" id="svg_12"/>
     <path d="m380,401.99999l0,-37l175,-88c96,-48 177,-87 180,-87c3,0 5,16 5,35l0,35l-180,90l-180,90l0,-38z" fill="#e05b22" id="svg_11"/>
     <path d="m43,404.99999l-33,-14l0,-85c0,-85 0,-86 31,-101c17,-9 33,-14 35,-12c3,2 3,54 2,115l-3,110l-32,-13z" fill="#e05b22" id="svg_10"/>
    </g>
   </g>
  </g>
 </g>
</svg>